<mxfile host="app.diagrams.net" agent="Mozilla/5.0 (X11; Linux x86_64) AppleWebKit/537.36 (KHTML, like Gecko) Chrome/128.0.0.0 Safari/537.36" version="24.7.13">
  <diagram name="Page-1" id="3Ob3QEYDSXq53l5VCb18">
    <mxGraphModel dx="1834" dy="1193" grid="0" gridSize="10" guides="1" tooltips="1" connect="1" arrows="1" fold="1" page="0" pageScale="1" pageWidth="850" pageHeight="1100" math="0" shadow="0">
      <root>
        <mxCell id="0" />
        <mxCell id="1" parent="0" />
        <mxCell id="pMuwWXRfGZ8tcgUSHDjv-1" value="Покупатель" style="shape=umlActor;verticalLabelPosition=bottom;verticalAlign=top;html=1;outlineConnect=0;" parent="1" vertex="1">
          <mxGeometry x="-27" y="257" width="30" height="60" as="geometry" />
        </mxCell>
        <mxCell id="pMuwWXRfGZ8tcgUSHDjv-2" value="Продавец" style="shape=umlActor;verticalLabelPosition=bottom;verticalAlign=top;html=1;outlineConnect=0;" parent="1" vertex="1">
          <mxGeometry x="-38" y="-194" width="30" height="60" as="geometry" />
        </mxCell>
        <mxCell id="pMuwWXRfGZ8tcgUSHDjv-3" value="Добавление товара в корзину" style="ellipse;whiteSpace=wrap;html=1;" parent="1" vertex="1">
          <mxGeometry x="336" y="334" width="140" height="70" as="geometry" />
        </mxCell>
        <mxCell id="pMuwWXRfGZ8tcgUSHDjv-5" value="Удаление товара из корзины" style="ellipse;whiteSpace=wrap;html=1;" parent="1" vertex="1">
          <mxGeometry x="341" y="239" width="130" height="70" as="geometry" />
        </mxCell>
        <mxCell id="pMuwWXRfGZ8tcgUSHDjv-6" value="Добавление товара в избранные" style="ellipse;whiteSpace=wrap;html=1;" parent="1" vertex="1">
          <mxGeometry x="334" y="450" width="135" height="70" as="geometry" />
        </mxCell>
        <mxCell id="pMuwWXRfGZ8tcgUSHDjv-7" value="Удаление товара из избранных" style="ellipse;whiteSpace=wrap;html=1;" parent="1" vertex="1">
          <mxGeometry x="336.5" y="551" width="130" height="70" as="geometry" />
        </mxCell>
        <mxCell id="pMuwWXRfGZ8tcgUSHDjv-8" value="Поиск товара по критериями" style="ellipse;whiteSpace=wrap;html=1;" parent="1" vertex="1">
          <mxGeometry x="146" y="608" width="140" height="70" as="geometry" />
        </mxCell>
        <mxCell id="pMuwWXRfGZ8tcgUSHDjv-9" value="Возможность начать чат с продавцом" style="ellipse;whiteSpace=wrap;html=1;" parent="1" vertex="1">
          <mxGeometry x="146" y="183" width="140" height="70" as="geometry" />
        </mxCell>
        <mxCell id="pMuwWXRfGZ8tcgUSHDjv-10" value="Просмотр карточки товара" style="ellipse;whiteSpace=wrap;html=1;" parent="1" vertex="1">
          <mxGeometry x="145" y="695" width="140" height="70" as="geometry" />
        </mxCell>
        <mxCell id="pMuwWXRfGZ8tcgUSHDjv-11" value="Отслеживание изменения цены товара" style="ellipse;whiteSpace=wrap;html=1;" parent="1" vertex="1">
          <mxGeometry x="146" y="395" width="140" height="70" as="geometry" />
        </mxCell>
        <mxCell id="pMuwWXRfGZ8tcgUSHDjv-12" value="Возможность оставить отзыв о товаре" style="ellipse;whiteSpace=wrap;html=1;" parent="1" vertex="1">
          <mxGeometry x="138.5" y="-22" width="155" height="80" as="geometry" />
        </mxCell>
        <mxCell id="pMuwWXRfGZ8tcgUSHDjv-13" value="Возможность поставить оценку товару" style="ellipse;whiteSpace=wrap;html=1;" parent="1" vertex="1">
          <mxGeometry x="146" y="88" width="140" height="70" as="geometry" />
        </mxCell>
        <mxCell id="pMuwWXRfGZ8tcgUSHDjv-14" value="Создание карточки товара" style="ellipse;whiteSpace=wrap;html=1;" parent="1" vertex="1">
          <mxGeometry x="352" y="-298" width="140" height="70" as="geometry" />
        </mxCell>
        <mxCell id="pMuwWXRfGZ8tcgUSHDjv-15" value="Изменение информации о товаре" style="ellipse;whiteSpace=wrap;html=1;" parent="1" vertex="1">
          <mxGeometry x="332" y="-120" width="180" height="90" as="geometry" />
        </mxCell>
        <mxCell id="pMuwWXRfGZ8tcgUSHDjv-16" value="Удаление карточки товара" style="ellipse;whiteSpace=wrap;html=1;" parent="1" vertex="1">
          <mxGeometry x="352" y="-209" width="140" height="70" as="geometry" />
        </mxCell>
        <mxCell id="pMuwWXRfGZ8tcgUSHDjv-28" value="" style="endArrow=none;html=1;rounded=0;entryX=0;entryY=0.5;entryDx=0;entryDy=0;exitX=1;exitY=0.3333333333333333;exitDx=0;exitDy=0;exitPerimeter=0;" parent="1" source="pMuwWXRfGZ8tcgUSHDjv-1" target="pMuwWXRfGZ8tcgUSHDjv-12" edge="1">
          <mxGeometry width="50" height="50" relative="1" as="geometry">
            <mxPoint x="60" y="115" as="sourcePoint" />
            <mxPoint x="215" y="-280" as="targetPoint" />
          </mxGeometry>
        </mxCell>
        <mxCell id="pMuwWXRfGZ8tcgUSHDjv-33" value="" style="endArrow=none;html=1;rounded=0;exitX=1;exitY=0.3333333333333333;exitDx=0;exitDy=0;exitPerimeter=0;entryX=0;entryY=0.5;entryDx=0;entryDy=0;" parent="1" source="pMuwWXRfGZ8tcgUSHDjv-1" edge="1" target="pMuwWXRfGZ8tcgUSHDjv-11">
          <mxGeometry width="50" height="50" relative="1" as="geometry">
            <mxPoint x="20" y="115" as="sourcePoint" />
            <mxPoint x="158" y="493" as="targetPoint" />
          </mxGeometry>
        </mxCell>
        <mxCell id="pMuwWXRfGZ8tcgUSHDjv-35" value="" style="endArrow=none;html=1;rounded=0;entryX=0;entryY=0.5;entryDx=0;entryDy=0;exitX=1;exitY=0.3333333333333333;exitDx=0;exitDy=0;exitPerimeter=0;" parent="1" source="pMuwWXRfGZ8tcgUSHDjv-1" target="pMuwWXRfGZ8tcgUSHDjv-13" edge="1">
          <mxGeometry width="50" height="50" relative="1" as="geometry">
            <mxPoint x="70" y="130" as="sourcePoint" />
            <mxPoint x="145" y="500" as="targetPoint" />
          </mxGeometry>
        </mxCell>
        <mxCell id="pMuwWXRfGZ8tcgUSHDjv-36" value="" style="endArrow=none;html=1;rounded=0;entryX=0;entryY=0.5;entryDx=0;entryDy=0;" parent="1" target="pMuwWXRfGZ8tcgUSHDjv-9" edge="1">
          <mxGeometry width="50" height="50" relative="1" as="geometry">
            <mxPoint x="3" y="277" as="sourcePoint" />
            <mxPoint x="155" y="510" as="targetPoint" />
          </mxGeometry>
        </mxCell>
        <mxCell id="pMuwWXRfGZ8tcgUSHDjv-37" value="Управление товарами" style="ellipse;whiteSpace=wrap;html=1;" parent="1" vertex="1">
          <mxGeometry x="145" y="-209" width="140" height="70" as="geometry" />
        </mxCell>
        <mxCell id="pMuwWXRfGZ8tcgUSHDjv-38" value="&amp;lt;&amp;lt;extend&amp;gt;&amp;gt;" style="html=1;verticalAlign=bottom;labelBackgroundColor=none;endArrow=open;endFill=0;dashed=1;rounded=0;exitX=0;exitY=0.5;exitDx=0;exitDy=0;entryX=1;entryY=0;entryDx=0;entryDy=0;" parent="1" source="pMuwWXRfGZ8tcgUSHDjv-14" target="pMuwWXRfGZ8tcgUSHDjv-37" edge="1">
          <mxGeometry width="160" relative="1" as="geometry">
            <mxPoint x="280.5" y="-206.97000000000003" as="sourcePoint" />
            <mxPoint x="329.9974746830583" y="-196.71873734152928" as="targetPoint" />
          </mxGeometry>
        </mxCell>
        <mxCell id="pMuwWXRfGZ8tcgUSHDjv-39" value="&amp;lt;&amp;lt;extend&amp;gt;&amp;gt;" style="html=1;verticalAlign=bottom;labelBackgroundColor=none;endArrow=open;endFill=0;dashed=1;rounded=0;exitX=0;exitY=0.5;exitDx=0;exitDy=0;" parent="1" source="pMuwWXRfGZ8tcgUSHDjv-16" target="pMuwWXRfGZ8tcgUSHDjv-37" edge="1">
          <mxGeometry width="160" relative="1" as="geometry">
            <mxPoint x="370.5" y="-391.97" as="sourcePoint" />
            <mxPoint x="346.44000000000005" y="-186.95000000000005" as="targetPoint" />
          </mxGeometry>
        </mxCell>
        <mxCell id="pMuwWXRfGZ8tcgUSHDjv-40" value="&amp;lt;&amp;lt;extend&amp;gt;&amp;gt;" style="html=1;verticalAlign=bottom;labelBackgroundColor=none;endArrow=open;endFill=0;dashed=1;rounded=0;exitX=0;exitY=0.5;exitDx=0;exitDy=0;entryX=1;entryY=1;entryDx=0;entryDy=0;" parent="1" source="pMuwWXRfGZ8tcgUSHDjv-15" target="pMuwWXRfGZ8tcgUSHDjv-37" edge="1">
          <mxGeometry width="160" relative="1" as="geometry">
            <mxPoint x="380.5" y="-381.97" as="sourcePoint" />
            <mxPoint x="347.55999999999995" y="-160" as="targetPoint" />
          </mxGeometry>
        </mxCell>
        <mxCell id="pMuwWXRfGZ8tcgUSHDjv-43" value="Управление корзиной" style="ellipse;whiteSpace=wrap;html=1;" parent="1" vertex="1">
          <mxGeometry x="146" y="288" width="140" height="70" as="geometry" />
        </mxCell>
        <mxCell id="pMuwWXRfGZ8tcgUSHDjv-44" value="&amp;lt;&amp;lt;extend&amp;gt;&amp;gt;" style="html=1;verticalAlign=bottom;labelBackgroundColor=none;endArrow=open;endFill=0;dashed=1;rounded=0;exitX=0;exitY=0.5;exitDx=0;exitDy=0;entryX=1;entryY=0;entryDx=0;entryDy=0;" parent="1" source="pMuwWXRfGZ8tcgUSHDjv-5" target="pMuwWXRfGZ8tcgUSHDjv-43" edge="1">
          <mxGeometry width="160" relative="1" as="geometry">
            <mxPoint x="370" y="-340" as="sourcePoint" />
            <mxPoint x="259" y="-412" as="targetPoint" />
          </mxGeometry>
        </mxCell>
        <mxCell id="pMuwWXRfGZ8tcgUSHDjv-46" value="&amp;lt;&amp;lt;extend&amp;gt;&amp;gt;" style="html=1;verticalAlign=bottom;labelBackgroundColor=none;endArrow=open;endFill=0;dashed=1;rounded=0;exitX=0;exitY=0.5;exitDx=0;exitDy=0;entryX=1;entryY=1;entryDx=0;entryDy=0;" parent="1" source="pMuwWXRfGZ8tcgUSHDjv-3" target="pMuwWXRfGZ8tcgUSHDjv-43" edge="1">
          <mxGeometry width="160" relative="1" as="geometry">
            <mxPoint x="330" y="270" as="sourcePoint" />
            <mxPoint x="280" y="330" as="targetPoint" />
          </mxGeometry>
        </mxCell>
        <mxCell id="pMuwWXRfGZ8tcgUSHDjv-47" value="" style="endArrow=none;html=1;rounded=0;entryX=0;entryY=0;entryDx=0;entryDy=0;exitX=1;exitY=0.3333333333333333;exitDx=0;exitDy=0;exitPerimeter=0;" parent="1" source="pMuwWXRfGZ8tcgUSHDjv-1" target="pMuwWXRfGZ8tcgUSHDjv-43" edge="1">
          <mxGeometry width="50" height="50" relative="1" as="geometry">
            <mxPoint x="50" y="195" as="sourcePoint" />
            <mxPoint x="140" y="240" as="targetPoint" />
          </mxGeometry>
        </mxCell>
        <mxCell id="pMuwWXRfGZ8tcgUSHDjv-48" value="Управление избранными товарами" style="ellipse;whiteSpace=wrap;html=1;" parent="1" vertex="1">
          <mxGeometry x="141" y="507" width="150" height="70" as="geometry" />
        </mxCell>
        <mxCell id="pMuwWXRfGZ8tcgUSHDjv-49" value="&amp;lt;&amp;lt;extend&amp;gt;&amp;gt;" style="html=1;verticalAlign=bottom;labelBackgroundColor=none;endArrow=open;endFill=0;dashed=1;rounded=0;entryX=1;entryY=0;entryDx=0;entryDy=0;exitX=0;exitY=0.5;exitDx=0;exitDy=0;" parent="1" source="pMuwWXRfGZ8tcgUSHDjv-6" target="pMuwWXRfGZ8tcgUSHDjv-48" edge="1">
          <mxGeometry width="160" relative="1" as="geometry">
            <mxPoint x="325" y="390" as="sourcePoint" />
            <mxPoint x="279" y="343" as="targetPoint" />
          </mxGeometry>
        </mxCell>
        <mxCell id="pMuwWXRfGZ8tcgUSHDjv-50" value="&amp;lt;&amp;lt;extend&amp;gt;&amp;gt;" style="html=1;verticalAlign=bottom;labelBackgroundColor=none;endArrow=open;endFill=0;dashed=1;rounded=0;exitX=0;exitY=0.5;exitDx=0;exitDy=0;entryX=0.907;entryY=0.814;entryDx=0;entryDy=0;entryPerimeter=0;" parent="1" source="pMuwWXRfGZ8tcgUSHDjv-7" target="pMuwWXRfGZ8tcgUSHDjv-48" edge="1">
          <mxGeometry width="160" relative="1" as="geometry">
            <mxPoint x="335" y="400" as="sourcePoint" />
            <mxPoint x="289" y="353" as="targetPoint" />
          </mxGeometry>
        </mxCell>
        <mxCell id="pMuwWXRfGZ8tcgUSHDjv-52" value="" style="endArrow=none;html=1;rounded=0;entryX=0;entryY=0.5;entryDx=0;entryDy=0;exitX=1;exitY=0.3333333333333333;exitDx=0;exitDy=0;exitPerimeter=0;" parent="1" source="pMuwWXRfGZ8tcgUSHDjv-1" target="pMuwWXRfGZ8tcgUSHDjv-48" edge="1">
          <mxGeometry width="50" height="50" relative="1" as="geometry">
            <mxPoint x="20" y="155" as="sourcePoint" />
            <mxPoint x="130" y="430" as="targetPoint" />
          </mxGeometry>
        </mxCell>
        <mxCell id="azQhM611iXiCVJqhjth4-1" value="" style="endArrow=none;html=1;rounded=0;entryX=0;entryY=0.5;entryDx=0;entryDy=0;exitX=1;exitY=0.3333333333333333;exitDx=0;exitDy=0;exitPerimeter=0;" parent="1" source="pMuwWXRfGZ8tcgUSHDjv-2" target="pMuwWXRfGZ8tcgUSHDjv-37" edge="1">
          <mxGeometry width="50" height="50" relative="1" as="geometry">
            <mxPoint x="90" y="-110" as="sourcePoint" />
            <mxPoint x="160" y="-125" as="targetPoint" />
          </mxGeometry>
        </mxCell>
        <mxCell id="azQhM611iXiCVJqhjth4-3" value="" style="rounded=0;whiteSpace=wrap;html=1;fillColor=none;" parent="1" vertex="1">
          <mxGeometry x="97" y="-318" width="441" height="1286" as="geometry" />
        </mxCell>
        <mxCell id="t7hYTZrMSUsAHQegwstR-3" value="Гость" style="shape=umlActor;verticalLabelPosition=bottom;verticalAlign=top;html=1;outlineConnect=0;" vertex="1" parent="1">
          <mxGeometry x="-27" y="746" width="30" height="60" as="geometry" />
        </mxCell>
        <mxCell id="t7hYTZrMSUsAHQegwstR-4" value="" style="endArrow=none;html=1;rounded=0;entryX=0;entryY=0.5;entryDx=0;entryDy=0;exitX=1;exitY=0.3333333333333333;exitDx=0;exitDy=0;exitPerimeter=0;" edge="1" parent="1" source="t7hYTZrMSUsAHQegwstR-3" target="pMuwWXRfGZ8tcgUSHDjv-8">
          <mxGeometry width="50" height="50" relative="1" as="geometry">
            <mxPoint x="1" y="764" as="sourcePoint" />
            <mxPoint x="51" y="714" as="targetPoint" />
          </mxGeometry>
        </mxCell>
        <mxCell id="t7hYTZrMSUsAHQegwstR-5" value="" style="endArrow=none;html=1;rounded=0;entryX=0;entryY=0.5;entryDx=0;entryDy=0;exitX=1;exitY=0.3333333333333333;exitDx=0;exitDy=0;exitPerimeter=0;" edge="1" parent="1" source="t7hYTZrMSUsAHQegwstR-3" target="pMuwWXRfGZ8tcgUSHDjv-10">
          <mxGeometry width="50" height="50" relative="1" as="geometry">
            <mxPoint x="13" y="708" as="sourcePoint" />
            <mxPoint x="156" y="674" as="targetPoint" />
          </mxGeometry>
        </mxCell>
        <mxCell id="t7hYTZrMSUsAHQegwstR-6" value="Регистрация" style="ellipse;whiteSpace=wrap;html=1;" vertex="1" parent="1">
          <mxGeometry x="146" y="785" width="140" height="70" as="geometry" />
        </mxCell>
        <mxCell id="t7hYTZrMSUsAHQegwstR-7" value="Авторизация" style="ellipse;whiteSpace=wrap;html=1;" vertex="1" parent="1">
          <mxGeometry x="146" y="875" width="140" height="70" as="geometry" />
        </mxCell>
        <mxCell id="t7hYTZrMSUsAHQegwstR-8" value="" style="endArrow=none;html=1;rounded=0;entryX=0;entryY=0.5;entryDx=0;entryDy=0;exitX=1;exitY=0.3333333333333333;exitDx=0;exitDy=0;exitPerimeter=0;" edge="1" parent="1" source="t7hYTZrMSUsAHQegwstR-3" target="t7hYTZrMSUsAHQegwstR-6">
          <mxGeometry width="50" height="50" relative="1" as="geometry">
            <mxPoint x="13" y="708" as="sourcePoint" />
            <mxPoint x="155" y="772" as="targetPoint" />
          </mxGeometry>
        </mxCell>
        <mxCell id="t7hYTZrMSUsAHQegwstR-9" value="" style="endArrow=none;html=1;rounded=0;entryX=0;entryY=0.5;entryDx=0;entryDy=0;exitX=1;exitY=0.3333333333333333;exitDx=0;exitDy=0;exitPerimeter=0;" edge="1" parent="1" source="t7hYTZrMSUsAHQegwstR-3" target="t7hYTZrMSUsAHQegwstR-7">
          <mxGeometry width="50" height="50" relative="1" as="geometry">
            <mxPoint x="13" y="708" as="sourcePoint" />
            <mxPoint x="156" y="867" as="targetPoint" />
          </mxGeometry>
        </mxCell>
      </root>
    </mxGraphModel>
  </diagram>
</mxfile>
